<svg id="Layer_1" data-name="Layer 1" xmlns="http://www.w3.org/2000/svg" viewBox="0 0 764.66 1000"><defs><style>.cls-1,.cls-2{fill:#000;}.cls-2{fill-rule:evenodd;}</style></defs><title>activity log</title><g id="activity_log" data-name="activity log"><path class="cls-1" d="M319.17,58.66C204.39,41,121.61,113.22,119.66,238c-3,191.78-2.3,383.67-.17,575.5,1.14,104.72,64.1,181.57,154.06,183.85,151.9,3.77,304,3.29,455.88-.19,84.92-2,148.06-70.54,151.69-155.49,2-47.13.8-94.39.82-141.63,0-160.83,1.19-321.7-.6-482.54-1.22-107.27-99.55-185-200.11-154.68,35,13.79,29.62,57,68.2,67.78,46.87,13,66.64,52,66.78,98.79.53,197.73.89,395.48-.71,593.19C815,892,772.64,931.7,703.21,932.13q-201.44,1.23-402.85-.06c-68.74-.49-110.79-42-111.08-110.67q-1.36-296.6-.1-593.22c.1-39.08,12.77-76.71,50.81-91.07C280.12,122,295.28,88.54,319.17,58.66Zm179,154v-.84c41.23,0,82.52,1.17,123.69-.31,39.12-1.41,64.67-23.15,68.5-61.93s-17.91-64.86-55.27-74.12c-15.56-3.85-24.28-9-32.83-23.58-40.7-69.48-159.4-69-200.15.36C394.89,64.62,389,72,373.65,74.87c-40.27,7.51-62.76,33.81-59.09,75,3.82,42.16,33.65,60.56,73.14,62.44C424.44,214,461.35,212.67,498.2,212.67ZM608.61,578.13c32.34,0,64.69-.15,97,0,22,.14,38.77-9,40.32-31.64,1.76-26-17.21-36.66-39.92-36.93q-99.2-1.41-198.4.19c-20.85.33-37.69,10-37.59,34.34.1,27.18,18.36,34,41.56,34Q560.07,578.12,608.61,578.13Zm2.57-248.31v.65c-33.89,0-67.87.62-101.76-.21-22.81-.53-37.86,7.87-39.05,31.58-1.24,24.46,14,33.74,36.51,33.74,66.39.08,132.76-.1,199.11.2,22.09.07,39.45-8.08,39.82-31.44.4-25.74-17.94-34.71-41.73-34.57C673.11,329.94,642.14,329.82,611.18,329.82Zm-3.77,428c33.93,0,67.89-.1,101.82,0,23.58.11,37-12.72,36.58-34.83-.43-20.76-15.69-30.49-36.15-30.54q-101.83-.12-203.61,0c-23.27,0-36.62,11.13-35.8,34.73.77,21.67,14.52,30.67,35.34,30.59C539.53,757.68,573.47,757.78,607.42,757.8ZM337.09,413.48c26.43-11.59,41.43-34.17,59.76-52.52,11-11,34.55-22.89,13.11-42-17.56-15.68-28.92,4.55-39.51,14.91-18.8,18.39-33.46,41.9-61.85,8.85-9.85-11.46-29.11,1.85-24.91,16.48C291.08,385.23,313.71,400.54,337.09,413.48Zm80.65,101.43c.36-8.42-4-13.82-11.45-16.75-11.31-4.41-19.79,1.34-27.77,8.37C357.75,524.92,341.26,560.44,307,523c-5.4-5.89-14.89-1.34-19.48,4.52-7.45,9.57-5.34,20.46,3.44,27.61,16.32,13.26,24.13,39,50.83,37.19C353.07,591.53,417.32,524.44,417.74,514.91Zm.09,178.16a18.34,18.34,0,0,0-12-15.65c-11.62-4.54-19.61,2.55-27.37,9.52-20.75,18.75-37,55-71.72,16.77-4.57-5-14.38-1.46-19.36,5-6.25,8.15-5.36,18.62,1.09,24.34,16.67,14.89,26.12,41.09,54.09,39.44C353.79,771.88,417.82,703,417.82,693.07Z" transform="translate(-117.67 0)"/><path class="cls-2" d="M319.17,58.66c-23.89,29.88-39,63.33-79.17,78.46-38,14.36-50.71,52-50.81,91.07q-.78,296.62.1,593.22c.29,68.67,42.34,110.18,111.08,110.67q201.43,1.44,402.85.06C772.64,931.7,815,892,815.51,822.61c1.6-197.71,1.24-395.46.71-593.19-.14-46.75-19.92-85.76-66.78-98.79-38.58-10.74-33.21-54-68.2-67.78,100.56-30.34,198.89,47.41,200.11,154.68,1.79,160.83.6,321.7.6,482.54,0,47.24,1.19,94.5-.82,141.63-3.62,84.95-66.76,153.51-151.69,155.49-151.89,3.48-304,4-455.88.19-90-2.28-152.92-79.12-154.06-183.85-2.13-191.83-2.8-383.72.17-575.5C121.61,113.22,204.39,41,319.17,58.66Z" transform="translate(-117.67 0)"/><path class="cls-2" d="M498.2,212.67c-36.85,0-73.76,1.34-110.5-.39-39.48-1.88-69.31-20.28-73.14-62.44-3.67-41.16,18.82-67.46,59.09-75C389,72,394.89,64.62,402.12,52.25c40.75-69.37,159.45-69.84,200.15-.36,8.55,14.55,17.28,19.73,32.83,23.58,37.36,9.26,59.14,35.19,55.27,74.12S661,210.1,621.89,211.52c-41.18,1.48-82.46.31-123.69.31Z" transform="translate(-117.67 0)"/><path class="cls-2" d="M608.61,578.13q-48.51,0-97,0c-23.2,0-41.46-6.85-41.56-34-.11-24.32,16.74-34,37.59-34.34q99.2-1.57,198.4-.19c22.7.28,41.67,10.91,39.92,36.93-1.56,22.64-18.28,31.78-40.32,31.64C673.29,578,640.95,578.13,608.61,578.13Z" transform="translate(-117.67 0)"/><path class="cls-2" d="M611.18,329.82c31,0,61.92.12,92.9,0,23.79-.14,42.12,8.83,41.73,34.57-.37,23.37-17.73,31.51-39.82,31.44-66.35-.3-132.73-.12-199.11-.2-22.47,0-37.75-9.28-36.51-33.74,1.19-23.72,16.24-32.12,39.05-31.58,33.89.83,67.87.21,101.76.21Z" transform="translate(-117.67 0)"/><path class="cls-2" d="M607.42,757.8c-34,0-67.89-.12-101.82,0-20.82.08-34.57-8.93-35.34-30.59-.83-23.61,12.53-34.73,35.8-34.73q101.78,0,203.61,0c20.46,0,35.72,9.78,36.15,30.54.46,22.12-13,34.94-36.58,34.83C675.3,757.7,641.34,757.8,607.42,757.8Z" transform="translate(-117.67 0)"/><path class="cls-2" d="M337.09,413.48c-23.38-12.94-46-28.25-53.39-54.24-4.2-14.64,15.06-27.94,24.91-16.48,28.38,33.06,43,9.55,61.85-8.85C381,323.54,392.4,303.31,410,319c21.43,19.08-2.14,31-13.11,42C378.52,379.31,363.51,401.89,337.09,413.48Z" transform="translate(-117.67 0)"/><path class="cls-2" d="M417.69,514.94c-.38,9.49-64.62,76.58-75.88,77.32C315.11,594,307.3,568.34,291,555.08c-8.77-7.15-10.88-18-3.44-27.61,4.58-5.86,14.07-10.41,19.48-4.52,34.24,37.48,50.72,2,71.49-16.42,8-7,16.46-12.78,27.77-8.37C413.76,501.09,418.1,506.49,417.69,514.94Z" transform="translate(-117.67 0)"/><path class="cls-2" d="M417.82,693.07c0,10-64,78.82-75.22,79.46-28,1.65-37.42-24.55-54.09-39.44-6.45-5.72-7.35-16.19-1.09-24.34,5-6.5,14.78-10.08,19.36-5,34.76,38.23,51,2,71.72-16.77,7.76-7,15.74-14.06,27.37-9.52A18.34,18.34,0,0,1,417.82,693.07Z" transform="translate(-117.67 0)"/></g></svg>