<svg id="Layer_1" data-name="Layer 1" xmlns="http://www.w3.org/2000/svg" viewBox="0 0 661.2 1000"><defs><style>.cls-1{fill:#000;fill-rule:evenodd;}</style></defs><title>address settings</title><path id="address_settings" data-name="address settings" class="cls-1" d="M498.75,1000C486.45,967.76,476,939.62,465,911.68,413.18,780.08,333,664.76,256.21,547.4,205.64,470.1,163.72,390.3,170,292.54,179.58,144,296.47,19.36,444.66,3.14c117.76-12.89,223.2,12.52,305.9,101.79,93.95,101.39,106.58,249.22,30.54,379.49-52.75,90.34-115.2,175.12-166,266.43-41.27,74.15-71.67,154.34-107,231.83C506.1,987.1,503.5,991.26,498.75,1000ZM644.32,331.52c-.11-81.62-63.75-144.78-145.5-144.44s-144.45,64-143.94,146c.49,81.61,64.45,145.29,145.47,144.83S644.45,413.33,644.32,331.52Z" transform="translate(-169.4 0)"/></svg>