<svg id="Layer_1" data-name="Layer 1" xmlns="http://www.w3.org/2000/svg" viewBox="0 0 1001.97 1002"><defs><style>.cls-1{fill:none;stroke:#000;stroke-miterlimit:10;stroke-width:14px;}</style></defs><title>contact us</title><path class="cls-1" d="M469.14,327.85l-93.67-93.64a26.47,26.47,0,0,0-37.47,0l-70.6,70.5a52.31,52.31,0,0,0-12.25,55.56c19.18,51.88,66.2,157,157.77,248.63s196.7,138.59,248.64,157.74A52.49,52.49,0,0,0,717,754.32l70.6-70.53a26.55,26.55,0,0,0,0-37.47l-93.7-93.65a26.4,26.4,0,0,0-37.41,0l-56.29,56.23s-63.73-26.25-112.35-75c-48.78-48.72-75-112.44-75-112.44l56.23-56.18A26.48,26.48,0,0,0,469.14,327.85Z" transform="translate(1 1)"/><path class="cls-1" d="M1000,500c0,276.16-223.86,500-499.95,500S0,776.14,0,500,223.87,0,500,0,1000,223.89,1000,500Z" transform="translate(1 1)"/></svg>