<svg id="Layer_1" data-name="Layer 1" xmlns="http://www.w3.org/2000/svg" viewBox="0 0 1000 1000"><defs><style>.cls-1{fill:#fff;fill-rule:evenodd;}</style></defs><title>info</title><g id="info"><path class="cls-1" d="M975,345.89C904,147.92,764.2,32.62,554.84,3.45c-4.27-.59-8.41-2.26-12.6-3.45H453.33c-28.76,5.93-57.94,10.25-86.2,18A498.23,498.23,0,0,0,3.78,441c-.66,5.67-2.49,11.21-3.78,16.81v84.44c8.61,38.72,13.09,79,26.55,115.94q107.13,294.3,418.61,338.39c4.27.59,8.41,2.28,12.61,3.45h84.46c35.21-7.42,71.13-12.51,105.55-22.65C835.42,922.1,976.05,751.7,996.37,557.1c.51-5,2.38-9.91,3.63-14.87V457.78C991.92,420.41,987.86,381.57,975,345.89ZM500.92,914.3c-228.78-.46-415.3-187.11-415.3-415.57,0-225.05,187.63-412.49,413.48-413.07,227.7-.59,414.74,186.7,415.15,415.69C914.64,726.11,725.83,914.74,500.92,914.3Z"/><path class="cls-1" d="M510.25,655.94c-4.11,3.83-12,3.6-18.1,5.24-1.24-6.08-3.7-12.23-3.33-18.21.41-6.46,3.12-12.87,5.41-19.1,18.38-49.91,37.37-99.59,55-149.74,5.56-15.82,9.77-32.72,11-49.38,2.14-30.24-14.65-47.07-45.26-47.07-68.15,0-111,41.86-148.31,91.77-2.92,3.89-.4,11.84-.41,17.9,5.71-1.92,12.94-2.28,16.84-6.06,16.39-15.92,31.25-33.47,48-49,4.31-4,13.31-3,20.13-4.31.51,6.81,3.33,14.43,1.22,20.3-10.26,28.44-22.59,56.14-32.77,84.62C404,576.59,387.07,620.09,375.21,664.9c-11.32,42.78,15.51,67.39,59,57.68C492,709.65,534.64,674.16,569,627.83c4.79-6.44,4.12-16.92,6-25.51-2.76-.77-5.52-1.53-8.28-2.28C548,618.77,529.62,637.9,510.25,655.94Z"/><path class="cls-1" d="M554.1,241c-31.87-1.05-61.23,27.93-60.87,60.1.34,29.73,20.95,50,50.38,49.62,33-.45,59.49-26.36,59.72-58.45C603.56,262.76,583.57,242,554.1,241Z"/></g></svg>