<svg id="Layer_1" data-name="Layer 1" xmlns="http://www.w3.org/2000/svg" viewBox="0 0 1001.95 1002"><defs><style>.cls-1{fill:none;stroke:#000;stroke-miterlimit:20;stroke-width:50px;}</style></defs><title>my account</title><path class="cls-1" d="M677.43,350.45A176.43,176.43,0,0,1,501,526.94c-97.5,0-176.56-78.93-176.56-176.49,0-97.38,79.07-176.4,176.56-176.4S677.43,253.08,677.43,350.45Z" transform="translate(1 1)"/><path class="cls-1" d="M236.3,791.66c0-146.2,118.49-264.72,264.72-264.72S765.7,645.46,765.7,791.66" transform="translate(1 1)"/><path class="cls-1" d="M1000,500c0,276.15-223.85,500-500,500S0,776.13,0,500,223.82,0,500,0,1000,223.9,1000,500Z" transform="translate(1 1)"/></svg>