<svg id="Layer_1" data-name="Layer 1" xmlns="http://www.w3.org/2000/svg" viewBox="0 0 919.27 1000"><defs><style>.cls-1,.cls-2{fill:#000;}.cls-2{fill-rule:evenodd;}</style></defs><title>my orders-arrows</title><g id="my_orders-arrows" data-name="my orders-arrows"><path class="cls-1" d="M924.85,379.72c6.29,71.26-3.07,95.8-53.56,143.5-14.55,13.67-29.35,27.06-44.6,39.9-57.39,48.4-117.8,91.9-188.78,119-16.64,6.37-25.4,2.54-34-12.51-15.53-27.19-32.24-53.79-50.14-79.44-5.74-8.26-16.79-12.76-25.42-19-5.21,8.61-13,16.56-15.25,25.88Q479,739,446.5,881.43c-7.75,33.85,9.74,58.7,43.95,65.32,91.42,17.65,182.79,35.82,274.34,52.81,10,1.86,21.17-2.67,31.79-4.23-2.24-10.47-2.06-22.33-7.15-31.19-17.27-30-36.4-58.9-54.8-88.25C987.43,725.65,987.68,513.93,924.85,379.72Z" transform="translate(-40.36 0)"/><path class="cls-2" d="M924.85,379.72c62.83,134.21,62.57,345.93-190.22,496.17,18.4,29.35,37.53,58.25,54.8,88.25,5.09,8.86,4.91,20.72,7.15,31.19-10.62,1.56-21.8,6.09-31.79,4.23-91.55-17-182.92-35.16-274.34-52.81-34.21-6.62-51.7-31.46-43.95-65.32Q479.13,739,513.11,597.07c2.24-9.31,10-17.27,15.25-25.88,8.63,6.24,19.68,10.75,25.42,19,17.9,25.65,34.61,52.26,50.14,79.44,8.58,15.05,17.34,18.88,34,12.51,71-27.13,131.39-70.63,188.78-119,15.25-12.84,30.05-26.23,44.6-39.9C921.78,475.52,931.14,451,924.85,379.72Z" transform="translate(-40.36 0)"/><path class="cls-1" d="M75.18,620.25c-6.34-71.26,3-95.8,53.51-143.5,14.55-13.67,29.35-27,44.63-39.9,57.41-48.38,117.83-91.87,188.76-119,16.66-6.39,25.42-2.57,34,12.51,15.53,27.18,32.24,53.76,50.12,79.41,5.76,8.23,16.81,12.76,25.45,19,5.21-8.61,13-16.56,15.23-25.85q34.13-142,66.6-284.36c7.75-33.88-9.74-58.72-43.95-65.35C418.11,35.59,326.74,17.44,235.22.45c-10-1.86-21.17,2.62-31.81,4.2,2.27,10.47,2.09,22.33,7.17,31.19,17.27,30,36.42,58.93,54.8,88.25C12.56,274.36,12.3,486,75.18,620.25Z" transform="translate(-40.36 0)"/><path class="cls-2" d="M75.18,620.25C12.3,486,12.56,274.36,265.37,124.08,247,94.76,227.84,65.81,210.58,35.84c-5.09-8.86-4.91-20.72-7.17-31.19C214,3.06,225.2-1.42,235.22.45c91.52,17,182.89,35.14,274.31,52.78,34.21,6.62,51.7,31.46,43.95,65.35q-32.62,142.3-66.6,284.36c-2.21,9.29-10,17.24-15.23,25.85C463,422.54,452,418,446.2,409.78c-17.87-25.65-34.59-52.23-50.12-79.41-8.58-15.08-17.34-18.9-34-12.51-70.93,27.14-131.34,70.63-188.76,119-15.28,12.86-30.08,26.23-44.63,39.9C78.2,524.46,68.84,549,75.18,620.25Z" transform="translate(-40.36 0)"/></g></svg>