<svg id="Layer_1" data-name="Layer 1" xmlns="http://www.w3.org/2000/svg" viewBox="0 0 1000 960.9"><defs><style>.cls-1,.cls-2{fill:#000;}.cls-2{fill-rule:evenodd;}</style></defs><title>my points-star</title><g id="my_points-star" data-name="my points-star"><path class="cls-1" d="M998.45,381.67c5.79-22.86-5-39.29-25.77-50.63a177.64,177.64,0,0,0-16.82-8c-34.67-14.65-71.93-18.53-108.48-24.75-39.14-6.67-78.8-10.89-118-17.51-20.3-3.42-40.85-8.38-52.43-28.68-6-10.49-12.68-20.64-18-31.47-22.52-45.79-43.88-92.2-67.2-137.59-14.85-28.79-31.25-57-60.21-74.75C514-2.42,496.64-2.82,478.71,7.45c-26.32,15-42.14,39.4-55.88,64.66-22,40.54-41.82,82.34-62.58,123.62-5.73,11.35-12.06,22.41-17.19,34-14.68,33.3-41.68,46.87-76.21,51.49-58.39,7.7-116.78,15.91-174.77,26.17-21.21,3.76-41.82,12.54-61.58,21.55-22,10-38.23,41.4-26.66,62.83,9.21,17,15.88,36.21,28.28,50.46,26.4,30.45,55.8,58.22,83.93,87.13,23.41,24.06,46.93,48,70.11,72.3,10.75,11.18,16.28,24.63,14.45,40.54-2,17.16-3,34.5-6.13,51.43-7.44,41.28-17.59,82.16-23.29,123.68-4.31,31.25-10,63-1.4,94.94,6.3,23.43,22.95,42.82,47.93,44.47,37.83,2.51,70.28-13.34,102.52-29.14,51.32-25.2,101.75-52.17,153.1-77.26,12.12-5.93,25.49-11.86,40.34-4.56,28.17,13.91,57.19,26.11,85.13,40.43,51.55,26.46,100.33,58.44,157.66,72.7,27.48,6.78,56.25-3.7,68.39-29.08,14.51-30.28,10.35-62.44,7.27-93.91-2.6-25.66-8.24-50.92-12.57-76.35-4.76-28-10.41-55.82-14.08-83.93-3-23.09-8.41-47.27,9.24-67.8,8.35-9.69,16.62-19.62,25.83-28.62,40.09-39.35,81.43-77.44,120.37-117.86C981.4,440,1004.06,417.88,998.45,381.67Z" transform="translate(0 0)"/><path class="cls-2" d="M998.45,381.67c5.62,36.21-17,58.33-37.52,79.66C922,501.76,880.65,539.85,840.56,579.19c-9.21,9-17.48,18.93-25.83,28.62-17.65,20.53-12.26,44.71-9.24,67.8,3.68,28.11,9.32,55.94,14.08,83.93,4.33,25.43,10,50.69,12.57,76.35,3.08,31.47,7.24,63.63-7.27,93.91-12.14,25.38-40.91,35.87-68.39,29.08-57.33-14.26-106.12-46.24-157.66-72.7-27.94-14.31-57-26.51-85.13-40.43-14.85-7.3-28.23-1.37-40.34,4.56-51.35,25.09-101.78,52.06-153.1,77.26-32.25,15.8-64.69,31.65-102.52,29.14-25-1.65-41.63-21-47.93-44.47-8.61-32-2.91-63.69,1.4-94.94,5.7-41.51,15.85-82.4,23.29-123.68,3.11-16.94,4.13-34.27,6.13-51.43,1.82-15.91-3.7-29.37-14.45-40.54-23.18-24.29-46.7-48.24-70.11-72.3-28.14-28.91-57.53-56.68-83.93-87.13C19.73,428,13.05,408.76,3.85,391.76-7.73,370.33,8.47,339,30.5,328.93c19.76-9,40.37-17.79,61.58-21.55,58-10.26,116.38-18.47,174.77-26.17,34.53-4.62,61.52-18.19,76.21-51.49,5.13-11.58,11.46-22.64,17.19-34,20.75-41.28,40.54-83.08,62.58-123.62,13.74-25.26,29.57-49.67,55.88-64.66,17.93-10.26,35.3-9.86,52.8.86,29,17.79,45.36,46,60.21,74.75,23.32,45.39,44.68,91.8,67.2,137.59,5.36,10.83,12.06,21,18,31.47,11.58,20.3,32.13,25.26,52.43,28.68,39.17,6.61,78.83,10.83,118,17.51,36.55,6.22,73.81,10.09,108.48,24.75a177.64,177.64,0,0,1,16.82,8C993.43,342.38,1004.24,358.81,998.45,381.67Z" transform="translate(0 0)"/></g></svg>