<svg id="Layer_1" data-name="Layer 1" xmlns="http://www.w3.org/2000/svg" viewBox="0 0 1002.1 1001.09"><defs><style>.cls-1{fill:#000;fill-rule:evenodd;}</style></defs><title>orders-account page</title><g id="orders-account_page" data-name="orders-account page"><path class="cls-1" d="M954,108.4C775.48,73.7,597.13,38.17,418.69,3c-48.45-9.55-56.61-5-73.58,41.23Q275.85,233.12,206.95,422.12c-13.28,36.34-27,72.52-39.41,109.14-8.09,23.78.63,44,20.18,51.79,21,8.3,41.28-1.15,51.94-24.3,1.73-3.72,3.24-7.57,4.62-11.42C298,399.61,352,252,404.89,104c6.56-18.37,13.92-23.87,33.38-19.77,88.56,18.65,177.43,35.85,266.18,53.61,68.47,13.7,136.91,27.48,207.71,41.69C904,204.62,897,228.1,888.87,251.18,829.35,419.49,770.47,588,709.41,755.76c-18,49.38-39.89,98.12-79.64,135.08-61.65,57.28-148.1,34.07-171.58-46.13-5.25-17.93-9.39-37.29-8.4-55.69,1.15-21.54-8.19-30.26-26.14-37.41-113.9-45.36-227.53-91.48-341.3-137.23-23.91-9.62-48-18.77-72.33-28.25C-18.9,696,19.9,788.6,109,828.67,217.14,877.28,325.66,925,433,975.09c104,48.49,241.09,31.59,302.55-98.89C786.28,768.57,829.07,656.89,869.9,545c47.37-129.77,88.79-261.71,132.79-392.71v-4.94C995.38,123.2,978,113.07,954,108.4Z" transform="translate(-0.59 1.09)"/><path class="cls-1" d="M472.63,435.09c-5,21,1.55,37.58,22,46.59,10.48,4.62,21.62,7.81,32.53,11.43,43.61,14.47,87.12,29.26,130.92,43.16,31.1,9.87,56.88-6.1,57.07-42.9-4.74-5.48-11.76-21.32-23-25.46-57.75-21.17-116.33-40.22-175.2-58C496,403.56,477.21,416,472.63,435.09Z" transform="translate(-0.59 1.09)"/><path class="cls-1" d="M616.47,618.4q-73.67-24.24-147.53-47.87c-7-2.24-14.33-4.32-21.57-4.66-19.61-.93-33.69,7.8-38.46,27.29-4.59,18.76.83,36.9,19.07,43.42,58.69,21,117.88,40.8,177.65,58.43,25.22,7.44,46.54-12.47,45.77-45.44C650.74,634.64,635.4,624.64,616.47,618.4Z" transform="translate(-0.59 1.09)"/><path class="cls-1" d="M740,370c24.31,5.78,44.84-14.42,43.77-47.08-5.67-5.55-14.4-21.16-26.8-25-56.46-17.67-113.78-32.74-171.17-47.24-22.15-5.59-40.11,6.34-46.3,26.44-5.41,17.59,4.15,39.63,24.21,45.52C622.14,339.77,680.85,356,740,370Z" transform="translate(-0.59 1.09)"/><path class="cls-1" d="M457.74,212.33c-21.78-.13-39.46,17.33-39.23,38.76.22,21.71,18.66,38.33,42.58,38.38,22.69,0,39.64-16.47,39.3-38.28C500,229.7,481.13,212.47,457.74,212.33Z" transform="translate(-0.59 1.09)"/><path class="cls-1" d="M296.38,560.07c-.14,22.06,17.61,38.78,41.62,39.22,21.87.39,40.16-16.47,40.47-37.32.31-21.21-18.51-38.65-42.12-39C313.17,522.55,296.52,538,296.38,560.07Z" transform="translate(-0.59 1.09)"/><path class="cls-1" d="M358,411.3c0,22,17.93,38.47,42,38.68,23.11.19,39.5-15.38,39.5-37.51,0-22.41-17.31-38.42-41.76-38.64C374.79,373.62,358,389.45,358,411.3Z" transform="translate(-0.59 1.09)"/></g></svg>