<svg id="Layer_1" data-name="Layer 1" xmlns="http://www.w3.org/2000/svg" viewBox="0 0 1000.47 1000"><defs><style>.cls-1{fill:#000;fill-rule:evenodd;}</style></defs><title>order settings</title><g id="order_settings" data-name="order settings"><path class="cls-1" d="M899.72,206.48c-6,10.4-10.33,23.06-18.74,31.84-36.74,38.43-46.56,75.53-18.52,127.3C878.36,395,891.68,410.16,924,413.8c82.69,9.33,76.65,15.11,76.21,90.54-.45,74.79,0,74.79-73.89,85.89a36.64,36.64,0,0,1-5.15.51c-30.7.28-51.87,11.77-56.55,45.26-1.28,9.14-4.78,19.23-10.5,26.27-23.28,28.74-11.43,51.31,7.58,76.84,46.53,62.53,50.58,58-10.89,117.5-52.73,51-52.36,51.43-112.62,8.38a25.92,25.92,0,0,1-4.16-3.08c-22.78-24.63-47.35-27.26-74.38-6.83a31.54,31.54,0,0,1-14.37,5.67c-43.6,5.67-59.73,33.21-59.83,74,0,3.42-.91,6.85-1.51,10.25-9,51.77-13.13,55.25-65.05,55-19.88-.08-39.77-.53-59.65-.2-26.09.43-40-12.4-43.78-37.8-3.4-23-6.19-46.26-11.72-68.78-2-8.12-9.87-17-17.45-21.05-14.34-7.6-32.09-9.33-45.4-18.1-27.94-18.46-49.23-14-75.54,6.18-61.08,46.88-59.11,56.11-121.59-9.49-49.41-51.88-51.7-52.31-7.12-109.93,21.74-28.1,33-52.69,7.89-83.14a4.73,4.73,0,0,1-1-2.35c-6.28-53-42.2-65.87-88.8-70.61C3.43,579.49-.09,572.49,0,520.08c0-20.75.14-41.5.16-62.25s9.06-34.44,30.45-38.59c30.41-5.91,67.66-3.49,89.12-20.68,20.47-16.39,25.45-53,35.16-81.48,3-8.85,2.51-21.84-2-29.76-11-19.45-25.29-37-38.21-55.41-17.52-24.86-16.67-38.06,4.06-59,17.64-17.81,35.7-35.21,53.12-53.24,17.64-18.27,35.62-22,57-5.51C250.7,131,272.12,156,296.5,159.82c22.37,3.51,47.82-18.74,73-25.44,24.17-6.43,36.29-18,37.76-43.54,1.13-19.65,6.72-39.05,10.13-58.6C421.1,11.09,434,.52,455,.27c29.38-.34,58.79-.45,88.17.18,20.85.44,33.64,11.18,37.22,32.39,4.73,28.06,1.83,62.23,17.2,82.3,14.86,19.41,50.15,21.9,73.83,36.21,22.31,13.48,38.35,10.65,56.77-5.52,14.84-13,32.16-23.28,48.49-34.63,14.7-10.22,30-10,42.77,2,23.93,22.45,47,45.86,69.6,69.66C893.95,188,895.36,196.49,899.72,206.48Zm-715,292.67C185,676,325.52,815.27,503.15,814.71c170.22-.53,311.59-142.11,311.77-312.26C815.11,322.6,675,183.94,493.61,184.52,324.2,185.05,184.44,327.4,184.69,499.15Z" transform="translate(0 0)"/><path class="cls-1" d="M695.38,621.86c-3.3-.55-7.58-1.11-11.8-2-29.59-6.18-49.69.5-63.37,26.38C615.54,655,618,670,621.84,680.44c10.69,29.4-9.72,35.59-29.24,43.88-18.81,8-34.09,12.35-47.44-11.29-20.71-36.68-65.59-37.29-85.52-.74-15.35,28.15-32.54,19.25-53.56,11.27-21.57-8.2-32.32-17.74-24.43-44,11.41-37.94-21.1-69.61-59.92-58.26-31.46,9.2-37.64-9.85-47.77-31.32-11-23.35-4.52-35.91,16.54-47.83,31.29-17.7,31.21-64.32-1.12-81C260.8,446.42,267,428.89,275.82,406c9.06-23.62,20.57-31.83,46.53-24.07C358,392.6,389.21,359,380.2,321.85c-4.72-19.41-5.77-35.37,18.58-42.81,21.4-6.53,40.78-23.71,58.44,8.81,19.36,35.67,65.41,35.36,84.21-.3,15-28.34,31.93-19.53,53.09-11.55,21.7,8.19,32.46,17.62,24.76,43.74-11.44,38.86,20.59,70.59,59.52,59.72,25-7,36.22,2.38,44.61,24.53,8.19,21.59,15.35,38.64-12.32,53.65-34.65,18.79-32.72,62.83,1.42,84.41,12.7,8,25,14.36,18.28,34.15C718.74,611.74,712.34,621.92,695.38,621.86ZM618,499.72c.07-66.62-50.6-117.34-117.83-117.95-65.68-.59-117.56,51.26-117.95,117.87-.38,66,51.21,117.68,117.76,117.92C566.2,617.79,617.91,566.15,618,499.72Z" transform="translate(0 0)"/></g></svg>