<svg id="Layer_1" data-name="Layer 1" xmlns="http://www.w3.org/2000/svg" viewBox="0 0 998.7 936.52"><defs><style>.cls-1{fill:#000;}</style></defs><title>points-cup</title><path id="points-cup" class="cls-1" d="M1000,215.79V367.93c-3.89,1.17-3.89,4.6-4.5,7.69C986.25,423,961.25,459.9,921.4,486.93l-37.81,18.78a419.91,419.91,0,0,1-82.9,20.69c-7.21,1.07-12.93,2.39-16.65,10.57-28.82,63.67-76,110.55-135.48,145.94l-34.93,16c-4.89,1.41-9.82,2.7-14.69,4.25-37.31,11.93-37.31,11.94-35.24,50.8q0,7.94.08,15.89c-1.58,18-.7,35.46,10.62,50.75,1.5,7.14,6.07,12.13,11.58,16.48,8.11,10.92,18.71,18.64,31,24.27,3.65,3,7.31,5.89,12.33,6.07a107.54,107.54,0,0,0,42.88,15.66c4.4,4.08,9.93,4.15,15.45,4.21,16.33,6.5,33.59,8.38,50.86,10.21l15.62,1.32c17.67,5.37,36.06,3.75,54.12,5.43l16.25,1.92,42.63,16.22c2.3,2.6,4.58,5.21,6.89,7.82,3.68,14.76-5.83,21.5-16.81,26.82-20.35,9.86-42.19,11.69-64.45,11.68q-284.22-.14-568.41.13c-26.12,0-51.79-1.4-76.91-8.84l-17.13-11.2c-8.07-13-2.42-21.59,8.92-28.49,14-8.5,29.88-11,45.35-14.94,6.69.54,13.25,0,19.53-2.63,23.75.29,47.26-1.52,70.26-7.85,6.78.33,13.53.5,19.7-3.07,20.13-1.74,39.17-8,57.94-14.9,68.77-25.38,89.5-57.18,85.62-130.49q0-7.92-.08-15.85c3.77-13.69-1.88-20.3-15.59-22-7.65-.94-15.08-3.4-22.61-5.17l-15.72-6.7-38.39-18-11.94-7.1-31.41-22.86c-3.33-2.9-6.69-5.79-10-8.68Q277.14,625,262.45,609.9l-10.72-13.1-20.14-30c-2.35-4-4.68-8-7-12-4.76-21.21-16.55-33.23-39.72-30.28L169.06,521l-46.66-12.62c-3-3.5-7.17-4.09-11.34-4.79l-34.83-19q-5.65-4-11.32-8c-44.14-38-62.67-87.33-63.39-144.35-.36-28.48-.17-57-.17-85.44,0-53.28,21.9-79.92,74-90.15l15.88,0,62.14-.08h33.54c-3.83-11.23-7.77-19.63-13.61-27.09q-8.33-17.28-16.7-34.56-2.92-8.08-5.82-16.16c3-32.91,18.14-46.17,54.54-46.28,74.75-.23,149.5,0,224.25,0q182.33,0,364.67.08c36.36,0,50.58,11.09,56.42,42.65l-7.24,23.44c-11.45,17.81-20.19,36.95-29.61,58h41.71l15.89.08,62.15.29,12,3.41C973.06,169.67,988.28,191,1000,215.79ZM383.59,306.28c-5.5,1-11.14,1.5-16.51,3-11.37,3.16-14.79,9.57-7,19.74,2.06,5.73,6.21,9.39,11.67,11.75l28.09,27q3.67,6,7.35,11.95c5.95,17.66,9.33,35.71,8.13,54.44q-2.36,9.75-4.74,19.48c-5,10.3-9,22.21.87,30.18,9.55,7.7,19.66-.39,28.21-6.14,11.87-8,23.9-15.51,37.48-20.25l19.75-1.62a138.33,138.33,0,0,1,46.37,10.41l11.6,7.81c3,2.34,5.67,5.07,8.91,7,7.22,4.22,15.32,8.84,23.16,3.31,8.05-5.66,5.7-14.9,3.84-22.91-1.72-7.35-4.56-14.45-6.9-21.66q-.87-4.75-1.73-9.51c-.23-36.73,12.8-66.46,43.79-88.11,8.91-6.23,22.64-13.48,11.89-29.08-5.54-5.78-12.55-7.08-20.15-6.63-17.31-.15-34.24-2.56-50.58-8.55l-11.79-7.4L531.2,266.52c-2.43-3.93-4.84-7.87-7.26-11.8-1.35-4.94-2.18-10.11-4.17-14.78-4.44-10.39-6.24-25.26-20.09-25.67-14.1-.42-17.44,14.12-20.74,24.77-11.77,37.92-38.54,58.14-75.66,67.05Zm479.78-85.94c-32.32.11-50,17.73-50,49.91,0,5.3,0,10.6.08,15.89q-.06,31.09-.08,62.17,0,7.93.08,15.85,0,27.24-.05,54.46c-.05,9.57,3.17,17.61,11,23.51,10.93,12.14,23.8,10.26,37.07,5.06,50.84-19.94,76.4-60,75.38-118.25V309.27c.17-18.35,3.47-36.83-2.05-55-.41-6.33-2.71-11.69-7.94-15.58-11.49-17.5-28.51-20.63-47.62-18.3ZM187.94,375.74q-.08-9.83-.16-19.67.1-29.17.16-58.35-.08-9.83-.16-19.67c2.39-19.14-.9-36.1-18.26-47.66-3-4.12-6.88-6.71-12.16-6.71-15.44-7.85-32-3.88-47.89-3.59-26.09.47-44.71,20.06-45.55,46.36-.53,16.87.29,33.77.5,50.66q.06,7.92.17,15.85c-.51,18.14,1.61,35.78,10.07,52.18a24.64,24.64,0,0,0,7.75,15.56c4.93,11.29,13.14,19.64,23.41,26.17,3.07,4.73,7.81,7.11,12.87,9,5,3,9.78,6.41,15,8.86,32.08,15,54.17,1.31,54.79-34C188.68,399.1,188.14,387.42,187.94,375.74Z" transform="translate(-1.3 -32.34)"/></svg>