<svg id="ar" xmlns="http://www.w3.org/2000/svg" viewBox="0 0 965.85 1000"><defs><style>.cls-1{fill:#fff;fill-rule:evenodd;}</style></defs><title>المحفظة</title><g id="المحفظة"><path class="cls-1" d="M188.42,275.92V344c-13.66,0-27.18-.4-40.67.17-6.28.29-13.27,1.13-18.46,4.2-4.24,2.52-8.92,8.88-8.64,13.25.28,4.95,4.83,11.53,9.38,13.88,6,3.11,13.75,3.79,20.76,3.81q249.69.28,499.37.13,96,0,192,0c61.25.11,106.13,45.14,106.22,106.3,0,21.19,0,42.39,0,65.35H936.62q-82.51,0-165,0c-71.94,0-131.8,51.77-140,121-8.46,71,36.15,135.19,106.35,152.42A120.79,120.79,0,0,0,765.55,828c56.46.32,112.91.19,169.35.21h12.4c.4,2.82,1.08,5.19,1,7.55-.49,25.83,1.14,52-2.12,77.45-6.37,49.76-50,86.57-100.19,86.61q-363,.27-725.87,0c-56.67,0-102.59-45.35-102.72-102.07q-.69-259.92,0-519.85C17.53,321.73,63,277,119.19,276,141.81,275.6,164.45,275.92,188.42,275.92Z" transform="translate(-17.07)"/><path class="cls-1" d="M815.76,344c6.92-16.75,13.41-32.52,19.89-48.19-58.68-29.07-76.86-88.24-57.23-142-16.3-6.94-32.67-13.93-49.07-20.87-16.18-6.85-32.36-13.65-49-20.66C648.87,169.2,602.42,189,538.86,170c-1.38,2.79-3.23,6.14-4.71,9.64-21.83,51.54-43.75,103-65.22,154.72-3,7.38-6.74,10.14-14.92,9.88-21.17-.68-42.36-.24-64.66-.24,1-3.21,1.54-5.84,2.55-8.27Q453,190.9,514.16,46.18c17.29-40.78,56.73-56.53,97.7-39.25Q757.22,68.15,902.35,129.71c40.33,17.09,56.36,58.17,38.45,98-16.16,36-32.49,71.93-48.45,108-2.66,6-5.81,8.62-12.73,8.45C858.82,343.69,838,344,815.76,344Z" transform="translate(-17.07)"/><path class="cls-1" d="M861.07,790.85c-33.38,0-67.06,2.88-100.07-.69-48.39-5.22-84.1-50.67-84-100.86S713.41,596,761.71,588.56a158.77,158.77,0,0,1,23.56-1.88q79.78-.25,159.57-.06c24.26,0,38,13.85,38.05,38.19q0,64.68,0,129.38c0,25-13.67,38.52-38.79,38.58-27.66.07-55.34,0-83,0ZM810.87,730c22.12-.14,40.51-18.81,40.19-40.81a40.31,40.31,0,0,0-80.61.38C770.54,712,788.69,730.14,810.87,730Z" transform="translate(-17.07)"/><path class="cls-1" d="M342.23,343.53H307.75c3.15-12.07,6.09-23.35,9-34.64,19.44-73.5,38.61-147.07,58.45-220.45,11.41-42.17,54.56-63.86,94.93-47.51Q406.17,192.33,342.23,343.53Z" transform="translate(-17.07)"/><path class="cls-1" d="M763.59,343.56H524.31c1-28.28,11.69-51.24,33-68.8,30.53-25.15,66.08-30.68,103.61-22.62,45.62,9.8,79.52,35.41,98.72,78.77C761.31,334.71,762.15,338.86,763.59,343.56Z" transform="translate(-17.07)"/><path class="cls-1" d="M331.46,71.23c-23.07,87.05-46.24,173.52-68.75,260.16-2.49,9.6-5.82,14.4-16.3,12.68-5.54-.89-11.34-.15-17.81-.15,3.11-24.24,6-47.3,9-70.35,6.25-46.91,12.77-93.8,18.83-140.74C261.32,95.21,293.78,68.36,331.46,71.23Z" transform="translate(-17.07)"/></g></svg>